<?xml version="1.0" encoding="UTF-8"?>
<svg width="300px" height="300px" viewBox="0 0 300 300" version="1.1" xmlns="http://www.w3.org/2000/svg" xmlns:xlink="http://www.w3.org/1999/xlink">
    <!-- Generator: Sketch 52.6 (67491) - http://www.bohemiancoding.com/sketch -->
    <title>Slice</title>
    <desc>Created with Sketch.</desc>
    <g id="Page-1" stroke="none" stroke-width="1" fill="none" fill-rule="evenodd">
        <g id="app-logo" fill="#0B0B09">
            <g id="Group-17" transform="translate(50.000000, 103.000000)">
                <path d="M41.7265243,11.6433962 C44.3548262,8.56037736 46.1246375,4.26981132 45.6416186,0 C41.8529394,0.147169811 37.2699205,2.44528302 34.5510526,5.52641509 C32.1152035,8.25471698 29.9812413,12.6226415 30.556713,16.8075472 C34.7812413,17.1245283 39.0963356,14.7283019 41.7265243,11.6433962 M51.2001092,38.7433962 C51.3057696,49.7811321 61.1963356,53.4528302 61.3057696,53.5 C61.2208639,53.7584906 59.7246375,58.7339623 56.0944488,63.8716981 C52.956713,68.3150943 49.7001092,72.7415094 44.5699205,72.8320755 C39.5284111,72.9226415 37.9076564,69.9358491 32.1435054,69.9358491 C26.3812413,69.9358491 24.5812413,72.7415094 19.8076564,72.9226415 C14.856713,73.1037736 11.0850148,68.1188679 7.9208639,63.6924528 C1.45482616,54.6377358 -3.48668327,38.1075472 3.14916579,26.9490566 C6.4453922,21.4075472 12.3340714,17.8981132 18.7284111,17.8075472 C23.5906752,17.7188679 28.1812413,20.9773585 31.1529394,20.9773585 C34.1246375,20.9773585 39.701996,17.0584906 45.5661469,17.6339623 C48.0208639,17.7320755 54.9114299,18.5943396 59.337845,24.8679245 C58.9812413,25.0811321 51.1152035,29.5169811 51.2001092,38.7433962" id="Fill-17"></path>
                <path d="M84.5170903,39.4301887 C85.6585997,39.7566038 86.9340714,39.9849057 88.3453922,40.1169811 C89.7548262,40.2471698 91.2642601,40.3132075 92.8755809,40.3132075 C98.9208639,40.3132075 103.603883,38.9358491 106.928411,36.1811321 C110.252939,33.4264151 111.915204,29.3924528 111.915204,24.0792453 C111.915204,21.5207547 111.479354,19.2886792 110.60577,17.3867925 C109.732185,15.4830189 108.490675,13.9264151 106.879354,12.7113208 C105.268034,11.4981132 103.354826,10.5811321 101.137845,9.95660377 C98.9227507,9.33396226 96.4699205,9.02075472 93.7831281,9.02075472 C91.6359582,9.02075472 89.7887884,9.10377358 88.2435054,9.26792453 C86.6982224,9.43207547 85.456713,9.61132075 84.5170903,9.80754717 L84.5170903,39.4301887 Z M79.7793545,6.36603774 C81.7284111,6.03773585 83.8774677,5.74339623 86.2284111,5.48113208 C88.5774677,5.21886792 91.1642601,5.08679245 93.9850148,5.08679245 C98.0152035,5.08679245 101.490675,5.56226415 104.413317,6.51320755 C107.334071,7.46415094 109.734071,8.82641509 111.613317,10.5981132 C113.226524,12.1716981 114.486902,14.0415094 115.392562,16.2056604 C116.298222,18.3716981 116.751053,20.8641509 116.751053,23.6849057 C116.751053,27.0962264 116.130298,30.0830189 114.888788,32.6396226 C113.645392,35.2 111.951053,37.3471698 109.801996,39.0849057 C107.652939,40.8226415 105.100109,42.1188679 102.145392,42.9716981 C99.1906752,43.8245283 95.9661469,44.2509434 92.4736941,44.2509434 C89.3170903,44.2509434 86.6642601,44.0207547 84.5170903,43.5622642 L84.5170903,71.9018868 L79.7793545,71.9018868 L79.7793545,6.36603774 Z" id="Fill-18"></path>
                <path d="M149.675581,46.6132075 C147.122751,46.5471698 144.452939,46.645283 141.666147,46.9075472 C138.879354,47.1698113 136.31143,47.745283 133.960487,48.6301887 C131.609543,49.5169811 129.662373,50.8113208 128.11709,52.5169811 C126.573694,54.2245283 125.800109,56.4867925 125.800109,59.3075472 C125.800109,62.6528302 126.773694,65.1132075 128.720864,66.6886792 C130.668034,68.2622642 132.851053,69.0490566 135.269921,69.0490566 C137.21709,69.0490566 138.962373,68.7867925 140.507656,68.2622642 C142.051053,67.7358491 143.394449,67.0301887 144.535958,66.145283 C145.677468,65.2603774 146.634071,64.2603774 147.407656,63.145283 C148.179354,62.0301887 148.768034,60.8830189 149.171807,59.7018868 C149.507656,58.3886792 149.675581,57.4358491 149.675581,56.845283 L149.675581,46.6132075 Z M154.41143,60.6830189 C154.41143,62.5867925 154.443505,64.490566 154.51143,66.3924528 C154.577468,68.2943396 154.779354,70.1301887 155.115204,71.9018868 L150.681241,71.9018868 L149.977468,65.2113208 L149.775581,65.2113208 C149.169921,66.1301887 148.398222,67.0490566 147.4586,67.9679245 C146.518977,68.8849057 145.426524,69.7207547 144.185015,70.4754717 C142.943505,71.2301887 141.532185,71.8377358 139.952939,72.2962264 C138.373694,72.754717 136.645392,72.9830189 134.766147,72.9830189 C132.415204,72.9830189 130.349166,72.6075472 128.569921,71.8528302 C126.788788,71.1 125.328411,70.1150943 124.186902,68.9018868 C123.045392,67.6867925 122.188788,66.2924528 121.618977,64.7188679 C121.047279,63.145283 120.762373,61.5716981 120.762373,59.9962264 C120.762373,54.4207547 123.162373,50.1226415 127.96426,47.1056604 C132.768034,44.0867925 140.003883,42.6433962 149.675581,42.7754717 L149.675581,41.4962264 C149.675581,40.2490566 149.5586,38.8226415 149.322751,37.2150943 C149.086902,35.6075472 148.566147,34.0811321 147.760487,32.6396226 C146.954826,31.1962264 145.747279,29.9830189 144.134071,29 C142.522751,28.0150943 140.339732,27.5226415 137.585015,27.5226415 C135.503883,27.5226415 133.439732,27.8339623 131.392562,28.4566038 C129.343505,29.0792453 127.479354,29.9490566 125.800109,31.0641509 L124.288788,27.6188679 C126.437845,26.1773585 128.654826,25.145283 130.937845,24.5226415 C133.220864,23.8981132 135.60577,23.5867925 138.088788,23.5867925 C141.447279,23.5867925 144.185015,24.1433962 146.300109,25.2584906 C148.415204,26.3735849 150.077468,27.8169811 151.286902,29.5886792 C152.496336,31.3584906 153.318977,33.3433962 153.756713,35.5415094 C154.192562,37.7396226 154.41143,39.9207547 154.41143,42.0849057 L154.41143,60.6830189 Z" id="Fill-19"></path>
                <path d="M163.671807,24.6679245 L175.960487,55.3716981 C176.632185,57.0773585 177.271807,58.8320755 177.875581,60.6358491 C178.481241,62.4396226 179.01709,64.0962264 179.486902,65.6056604 L179.688788,65.6056604 C180.1586,64.1622642 180.696336,62.5377358 181.300109,60.7339623 C181.90577,58.9301887 182.575581,57.0773585 183.315204,55.1716981 L194.800109,24.6679245 L199.835958,24.6679245 L185.835958,59.3075472 C184.422751,62.9811321 183.096336,66.3113208 181.854826,69.2962264 C180.61143,72.2811321 179.352939,74.9716981 178.077468,77.3660377 C176.801996,79.7603774 175.507656,81.8754717 174.198222,83.7132075 C172.888788,85.5490566 171.428411,87.1566038 169.815204,88.5339623 C167.935958,90.1735849 166.20577,91.3698113 164.628411,92.1264151 C163.051053,92.8811321 161.992562,93.3566038 161.454826,93.5528302 L159.841619,89.7132075 C161.051053,89.1886792 162.394449,88.5 163.871807,87.6471698 C165.349166,86.7943396 166.794449,85.6792453 168.203883,84.3018868 C169.413317,83.1207547 170.739732,81.5622642 172.183128,79.6283019 C173.628411,77.6924528 174.920864,75.3471698 176.062373,72.590566 C176.466147,71.5415094 176.668034,70.8528302 176.668034,70.5245283 C176.668034,70.0660377 176.466147,69.3773585 176.062373,68.4584906 L158.634071,24.6679245 L163.671807,24.6679245" id="Fill-20"></path>
            </g>
        </g>
    </g>
</svg>