<?xml version="1.0" encoding="UTF-8"?>
<svg width="300px" height="300px" viewBox="0 0 300 300" version="1.1" xmlns="http://www.w3.org/2000/svg" xmlns:xlink="http://www.w3.org/1999/xlink">
    <!-- Generator: Sketch 52.6 (67491) - http://www.bohemiancoding.com/sketch -->
    <title>Slice</title>
    <desc>Created with Sketch.</desc>
    <defs>
        <radialGradient cx="86.8496638%" cy="30.0272996%" fx="86.8496638%" fy="30.0272996%" r="184.024457%" gradientTransform="translate(0.868497,0.300273),scale(1.000000,0.362882),rotate(2.554810),translate(-0.868497,-0.300273)" id="radialGradient-1">
            <stop stop-color="#FFEA00" offset="4.5%"></stop>
            <stop stop-color="#FFDE00" offset="12%"></stop>
            <stop stop-color="#FFBF00" offset="25.4%"></stop>
            <stop stop-color="#FF8E00" offset="42.9%"></stop>
            <stop stop-color="#FF272D" offset="76.9%"></stop>
            <stop stop-color="#E0255A" offset="87.2%"></stop>
            <stop stop-color="#CC2477" offset="95.3%"></stop>
            <stop stop-color="#C42482" offset="100%"></stop>
        </radialGradient>
        <radialGradient cx="70.8275826%" cy="12.3927561%" fx="70.8275826%" fy="12.3927561%" r="109.233694%" gradientTransform="translate(0.708276,0.123928),scale(1.000000,0.994695),translate(-0.708276,-0.123928)" id="radialGradient-2">
            <stop stop-color="#00CCDA" offset="0%"></stop>
            <stop stop-color="#0083FF" offset="22%"></stop>
            <stop stop-color="#007AF9" offset="26.1%"></stop>
            <stop stop-color="#0060E8" offset="33%"></stop>
            <stop stop-color="#005FE7" offset="33.3%"></stop>
            <stop stop-color="#2639AD" offset="43.8%"></stop>
            <stop stop-color="#401E84" offset="52.2%"></stop>
            <stop stop-color="#4A1475" offset="56.6%"></stop>
        </radialGradient>
        <linearGradient x1="57.3392895%" y1="75.2198361%" x2="35.1458962%" y2="6.80511416%" id="linearGradient-3">
            <stop stop-color="#000F43" stop-opacity="0.4" offset="0%"></stop>
            <stop stop-color="#001962" stop-opacity="0.173" offset="48.5%"></stop>
            <stop stop-color="#002079" stop-opacity="0" offset="100%"></stop>
        </linearGradient>
        <radialGradient cx="147.72731%" cy="-21.6638402%" fx="147.72731%" fy="-21.6638402%" r="171.815161%" gradientTransform="translate(1.477273,-0.216638),scale(0.923323,1.000000),rotate(5.761779),translate(-1.477273,0.216638)" id="radialGradient-4">
            <stop stop-color="#FFEA00" offset="0.3%"></stop>
            <stop stop-color="#FF272D" offset="49.7%"></stop>
            <stop stop-color="#C42482" offset="100%"></stop>
        </radialGradient>
        <radialGradient cx="135.976%" cy="-52.1307456%" fx="135.976%" fy="-52.1307456%" r="453.896488%" gradientTransform="translate(1.359760,-0.521307),scale(1.000000,0.541483),rotate(5.761779),translate(-1.359760,0.521307)" id="radialGradient-5">
            <stop stop-color="#FFE900" offset="0.3%"></stop>
            <stop stop-color="#FFAF0E" offset="15.7%"></stop>
            <stop stop-color="#FF7A1B" offset="31.6%"></stop>
            <stop stop-color="#FF4E26" offset="47.2%"></stop>
            <stop stop-color="#FF2C2E" offset="62.1%"></stop>
            <stop stop-color="#FF1434" offset="76.2%"></stop>
            <stop stop-color="#FF0538" offset="89.2%"></stop>
            <stop stop-color="#FF0039" offset="100%"></stop>
        </radialGradient>
        <radialGradient cx="211.883445%" cy="2.14494548%" fx="211.883445%" fy="2.14494548%" r="377.539423%" gradientTransform="translate(2.118834,0.021449),scale(0.533470,1.000000),rotate(5.761779),translate(-2.118834,-0.021449)" id="radialGradient-6">
            <stop stop-color="#FF272D" offset="0.3%"></stop>
            <stop stop-color="#C42482" offset="49.7%"></stop>
            <stop stop-color="#620700" offset="98.6%"></stop>
        </radialGradient>
        <radialGradient cx="76.8453227%" cy="39.179475%" fx="76.8453227%" fy="39.179475%" r="84.0433431%" gradientTransform="translate(0.768453,0.391795),scale(1.000000,0.959470),translate(-0.768453,-0.391795)" id="radialGradient-7">
            <stop stop-color="#FFEA00" offset="15.6%"></stop>
            <stop stop-color="#FFDE00" offset="23.1%"></stop>
            <stop stop-color="#FFBF00" offset="36.5%"></stop>
            <stop stop-color="#FF8E00" offset="54.1%"></stop>
            <stop stop-color="#FF272D" offset="76.3%"></stop>
            <stop stop-color="#F92433" offset="79.6%"></stop>
            <stop stop-color="#E91C45" offset="84.1%"></stop>
            <stop stop-color="#CF0E62" offset="89.3%"></stop>
            <stop stop-color="#B5007F" offset="93.5%"></stop>
        </radialGradient>
        <radialGradient cx="24.9534176%" cy="0.138231601%" fx="24.9534176%" fy="0.138231601%" r="249.815176%" gradientTransform="translate(0.249534,0.001382),scale(1.000000,0.396485),translate(-0.249534,-0.001382)" id="radialGradient-8">
            <stop stop-color="#FFEA00" offset="27.9%"></stop>
            <stop stop-color="#FFDD00" offset="40.2%"></stop>
            <stop stop-color="#FFBA00" offset="63%"></stop>
            <stop stop-color="#FF9100" offset="85.6%"></stop>
            <stop stop-color="#FF6711" offset="93.3%"></stop>
            <stop stop-color="#FF4A1D" offset="99.4%"></stop>
        </radialGradient>
        <linearGradient x1="-121.602561%" y1="64.455333%" x2="142.342359%" y2="29.6659057%" id="linearGradient-9">
            <stop stop-color="#C42482" stop-opacity="0.5" offset="0%"></stop>
            <stop stop-color="#FF272D" stop-opacity="0.5" offset="47.4%"></stop>
            <stop stop-color="#FF2C2C" stop-opacity="0.513" offset="48.6%"></stop>
            <stop stop-color="#FF7A1A" stop-opacity="0.72" offset="67.5%"></stop>
            <stop stop-color="#FFB20D" stop-opacity="0.871" offset="82.9%"></stop>
            <stop stop-color="#FFD605" stop-opacity="0.964" offset="94.2%"></stop>
            <stop stop-color="#FFE302" offset="100%"></stop>
        </linearGradient>
        <linearGradient x1="56.497619%" y1="94.8929888%" x2="19.4899942%" y2="5.47775928%" id="linearGradient-10">
            <stop stop-color="#891551" stop-opacity="0.6" offset="0%"></stop>
            <stop stop-color="#C42482" stop-opacity="0" offset="100%"></stop>
        </linearGradient>
        <linearGradient x1="8.03963742%" y1="6.68641317%" x2="47.9144739%" y2="47.8860609%" id="linearGradient-11">
            <stop stop-color="#891551" stop-opacity="0.5" offset="0.5%"></stop>
            <stop stop-color="#FF272D" stop-opacity="0.5" offset="48.4%"></stop>
            <stop stop-color="#FF272D" stop-opacity="0" offset="100%"></stop>
        </linearGradient>
        <linearGradient x1="47.5090137%" y1="102.675292%" x2="50.0086151%" y2="31.7488679%" id="linearGradient-12">
            <stop stop-color="#C42482" offset="0%"></stop>
            <stop stop-color="#C42482" stop-opacity="0.81" offset="8.3%"></stop>
            <stop stop-color="#C42482" stop-opacity="0.565" offset="20.6%"></stop>
            <stop stop-color="#C42482" stop-opacity="0.362" offset="32.8%"></stop>
            <stop stop-color="#C42482" stop-opacity="0.204" offset="44.7%"></stop>
            <stop stop-color="#C42482" stop-opacity="0.091" offset="56.2%"></stop>
            <stop stop-color="#C42482" stop-opacity="0.023" offset="67.3%"></stop>
            <stop stop-color="#C42482" stop-opacity="0" offset="77.3%"></stop>
        </linearGradient>
        <linearGradient x1="6.33406996%" y1="1.6470824%" x2="92.3513585%" y2="89.4608567%" id="linearGradient-13">
            <stop stop-color="#FFF14F" offset="0%"></stop>
            <stop stop-color="#FFEE4C" offset="26.8%"></stop>
            <stop stop-color="#FFE643" offset="45.2%"></stop>
            <stop stop-color="#FFD834" offset="61.2%"></stop>
            <stop stop-color="#FFC41E" offset="75.7%"></stop>
            <stop stop-color="#FFAB02" offset="89.2%"></stop>
            <stop stop-color="#FFA900" offset="90.2%"></stop>
            <stop stop-color="#FFA000" offset="94.9%"></stop>
            <stop stop-color="#FF9100" offset="100%"></stop>
        </linearGradient>
        <linearGradient x1="71.7885226%" y1="7.15860627%" x2="42.7455484%" y2="81.9478615%" id="linearGradient-14">
            <stop stop-color="#FF8E00" offset="0%"></stop>
            <stop stop-color="#FF8E00" stop-opacity="0.858" offset="4%"></stop>
            <stop stop-color="#FF8E00" stop-opacity="0.729" offset="8.4%"></stop>
            <stop stop-color="#FF8E00" stop-opacity="0.628" offset="13%"></stop>
            <stop stop-color="#FF8E00" stop-opacity="0.557" offset="17.8%"></stop>
            <stop stop-color="#FF8E00" stop-opacity="0.514" offset="22.7%"></stop>
            <stop stop-color="#FF8E00" stop-opacity="0.5" offset="28.2%"></stop>
            <stop stop-color="#FF8E00" stop-opacity="0.478" offset="38.9%"></stop>
            <stop stop-color="#FF8E00" stop-opacity="0.416" offset="52.4%"></stop>
            <stop stop-color="#FF8E00" stop-opacity="0.314" offset="67.6%"></stop>
            <stop stop-color="#FF8E00" stop-opacity="0.172" offset="83.8%"></stop>
            <stop stop-color="#FF8E00" stop-opacity="0" offset="100%"></stop>
        </linearGradient>
    </defs>
    <g id="Page-1" stroke="none" stroke-width="1" fill="none" fill-rule="evenodd">
        <g id="app-logo-copy-3">
            <g id="Firefox_Logo,_2017" transform="translate(50.000000, 47.000000)">
                <path d="M161.485325,19.1945493 C156.46499,25.0402516 154.126834,38.1964361 159.2174,51.5333333 C164.307966,64.8702306 172.110482,61.9735849 176.974214,75.5737945 C183.39413,93.5192872 180.40587,117.625996 180.40587,117.625996 C180.40587,117.625996 188.12369,139.975891 193.501887,116.23543 C205.40608,71.6436059 161.485325,30.1754717 161.485325,19.1945493 Z" id="Path" fill="url(#radialGradient-1)"></path>
                <path d="M100.224738,204.326625 C151.636897,204.326625 193.285535,162.452621 193.285535,110.819706 C193.285535,59.1867925 151.636897,17.3129979 100.274633,17.3129979 C48.912369,17.3129979 7.26415094,59.1870021 7.26415094,110.819706 C7.16457023,162.502516 48.8622642,204.326625 100.224738,204.326625 Z" id="_Path_" fill="url(#radialGradient-2)"></path>
                <path d="M169.95283,168.477149 C167.941137,169.896373 165.830747,171.170257 163.637736,172.289099 C166.542795,168.032508 169.222916,163.626683 171.667086,159.089727 C173.650314,156.894759 175.467086,154.761006 176.947589,152.453878 C177.668134,151.320335 178.480713,149.921593 179.340881,148.298952 C184.565409,138.885954 190.326205,123.652621 190.489518,108.005451 L190.489518,107.967715 C190.493291,107.5826 190.495597,107.197275 190.492453,106.81153 C190.519491,102.883838 190.117954,98.9649169 189.294969,95.1243187 C189.336897,95.4243187 189.373795,95.724109 189.41153,96.0238994 C189.365199,95.7932914 189.326205,95.5601677 189.27652,95.3291405 C189.353249,95.7555556 189.414885,96.1677149 189.481132,96.5834382 C190.549057,105.643606 189.78847,114.481132 185.983857,120.996436 C185.923899,121.091614 185.862264,121.180713 185.801677,121.273795 C187.774423,111.371488 188.434382,100.437945 186.239413,89.4918239 C186.239413,89.4918239 185.361635,84.1704403 178.823061,68.0157233 C175.059539,58.7174004 168.375891,51.09413 162.47086,45.5404612 C157.294759,39.1366876 152.593711,34.8392034 150.002306,32.1106918 C144.589099,26.4106918 142.320335,22.1381551 141.388679,19.3503145 C140.580922,18.945283 130.249266,8.90859539 129.428512,8.52620545 C124.918868,15.518239 110.736268,37.3888889 117.482809,57.8230608 C120.540252,67.0834382 128.272537,76.6945493 136.36478,82.0863732 C136.720126,82.4922432 141.180084,87.3362683 143.301048,98.2618449 C145.490985,109.549476 144.339623,118.357233 139.832285,131.381971 C134.531237,142.808595 120.950314,154.104822 108.233962,155.260377 C81.048218,157.730189 71.0958071,141.610901 71.0958071,141.610901 C80.8098532,145.494549 91.5503145,144.68218 98.0819706,140.655765 C104.66478,136.583438 108.646751,133.564151 111.878616,134.754717 C115.065199,135.939832 117.601887,132.49979 115.325577,128.933543 C111.732047,123.398676 105.179785,120.545636 98.6798742,121.685535 C92.0901468,122.756604 86.0538784,127.97673 77.4194969,122.921174 C76.8606594,122.596888 76.3197586,122.242632 75.7991614,121.859958 C75.229979,121.485744 77.6494759,122.42956 77.0849057,122.004193 C75.4046122,121.091405 72.4308176,119.102306 71.6593291,118.394759 C71.5308176,118.276939 72.9631027,118.851572 72.8345912,118.733543 C64.7612159,112.085325 65.7696017,107.59434 66.0232704,104.777568 C66.2264151,102.524109 67.6928721,99.636478 70.1639413,98.4651992 C71.3574423,99.1165618 72.1010482,99.6138365 72.1010482,99.6138365 C72.1010482,99.6138365 71.5920335,98.5737945 71.3167715,98.0255765 C71.4132075,97.9836478 71.5054507,97.9947589 71.6014675,97.9538784 C72.5792453,98.4257862 74.7412998,99.6519916 75.8796646,100.39979 C77.3622642,101.445493 77.8348008,102.377987 77.8348008,102.377987 C77.8348008,102.377987 78.2251572,102.163103 77.936478,101.251153 C77.8316562,100.877149 77.3815514,99.6886792 75.9129979,98.4893082 L76.0048218,98.4995807 C76.8837902,99.0004046 77.7163653,99.5785837 78.4926625,100.227254 C78.9067086,98.7218029 79.6513627,97.1498952 79.487631,94.3379455 C79.387631,92.3607966 79.4337526,91.848847 79.0853249,91.0853249 C78.7733753,90.4295597 79.2601677,90.1737945 79.8018868,90.854717 C79.7091653,90.3211846 79.5537927,89.8004614 79.3389937,89.3033543 L79.3436059,89.2522013 C80.0197065,86.8966457 93.6513627,80.7698113 94.6436059,80.0536688 C96.2738965,78.9001331 97.6409507,77.413894 98.6545073,75.6930818 C99.4127883,74.4849057 99.9830189,72.7899371 100.122013,70.2188679 C100.196436,68.3647799 99.3339623,67.129979 85.5503145,65.6867925 C81.7807128,65.3155136 79.5689727,62.5840671 78.3121593,60.063522 C78.0828092,59.5205451 77.8490566,59.0285115 77.6150943,58.5368973 C77.3917831,57.9621777 77.2125099,57.3713049 77.078826,56.769392 C79.3322851,50.297065 83.1186583,44.8245283 88.6861635,40.6897275 C88.9895178,40.4134172 87.4740042,40.760587 87.7771488,40.4842767 C88.1308176,40.1618449 90.4408805,39.2312369 90.8771488,39.0215933 C91.4100629,38.770021 88.5958071,37.5750524 86.1115304,37.8660377 C83.5813417,38.151153 83.0440252,38.4530398 81.6937107,39.0255765 C82.2540881,38.4677149 84.0360587,37.736478 83.618239,37.7412998 C80.890566,38.1595388 77.5010482,39.7450734 74.6035639,41.5408805 C74.5979183,41.2281721 74.6575378,40.9177221 74.7786164,40.6293501 C73.4283019,41.2020964 70.1119497,43.5199161 69.1465409,45.4809224 C69.1881455,45.10505 69.2067685,44.7269886 69.2023061,44.348847 C68.1736497,45.2067571 67.2456342,46.1785888 66.4360587,47.2457023 L66.3855346,47.2916143 C58.5536688,44.136478 51.6616352,43.9322851 45.8293501,45.3469602 C44.5534591,44.0656184 43.9301887,45.0023061 41.027044,38.6238994 C40.8297694,38.2398323 41.1784067,39.0031447 41.027044,38.6238994 C40.5494759,37.3870021 41.318239,40.2742138 41.027044,38.6238994 C36.1457023,42.4754717 29.7230608,46.8404612 26.6400419,49.9215933 C26.6018868,50.0444444 30.2366876,48.8943396 26.6400419,49.9215933 C25.3805031,50.2813417 25.4660377,51.0287212 25.2746331,57.7832285 C25.2285115,58.2953878 25.269392,58.8689727 25.2278826,59.329979 C22.7649895,62.4679245 21.087631,65.1251572 20.4532495,66.5020964 C17.2681342,71.990566 13.7601677,80.5465409 10.3597484,94.0809224 C11.8596156,90.4123603 13.6679125,86.877611 15.7651992,83.5146751 C12.9375262,90.6985325 10.2039832,101.979665 9.65744235,119.352201 C10.3414736,115.76731 11.2185714,112.221968 12.2849057,108.731656 C11.6173456,123.144554 14.1028309,137.529532 19.5679245,150.882809 C21.5236897,155.667086 24.7587002,162.927883 30.2658281,170.882809 C47.5683438,189.08805 71.9733753,200.421593 98.9979036,200.421593 C127.210063,200.421803 152.544025,188.078197 169.95283,168.477149 Z" id="Path" fill="url(#linearGradient-3)"></path>
                <path d="M149.077568,181.69979 C183.222222,177.745912 198.337317,142.559329 178.926834,141.867505 C161.393711,141.307128 132.904403,183.565618 149.077568,181.69979 Z" id="Path" fill="url(#radialGradient-4)"></path>
                <path d="M181.385115,134.680084 C204.876939,121.008386 198.751782,91.4767296 198.751782,91.4767296 C198.751782,91.4767296 189.685535,102.008805 183.526415,118.797484 C177.442348,135.422013 167.261426,142.937526 181.385115,134.680084 Z" id="Path" fill="url(#radialGradient-5)"></path>
                <path d="M106.807966,199.174423 C139.559958,209.625367 167.709434,183.824319 150.357862,175.207966 C134.581971,167.437317 91.2628931,194.232704 106.807966,199.174423 Z" id="Path" fill="url(#radialGradient-6)"></path>
                <path d="M183.825786,147.218868 C184.622432,146.094549 185.7,142.494549 186.651782,140.885325 C192.434172,131.551363 192.475052,124.109015 192.475052,123.938574 C195.967505,106.492243 195.650734,99.3683438 193.502306,86.1937107 C191.772537,75.5857442 184.210482,60.38826 177.659539,53.070021 C170.909015,45.5301887 175.66499,47.9867925 169.128721,42.4792453 C163.39979,36.1285115 157.845073,29.8396226 154.819916,27.3104822 C132.959119,9.03438155 133.45304,5.1524109 133.874004,4.49056604 C133.802935,4.56834382 133.698532,4.68385744 133.565409,4.83501048 C133.306499,3.80293501 133.12369,2.93501048 133.12369,2.93501048 C133.12369,2.93501048 121.174004,14.884696 118.658281,34.8008386 C117.015933,47.8031447 121.883229,61.357652 128.930818,70.0209644 C132.600663,74.5106295 136.748053,78.5877249 141.29979,82.1802935 L141.29979,82.1748428 C146.624738,89.8220126 149.555556,99.2584906 149.555556,109.409434 C149.555556,134.827463 128.938994,155.432704 103.506918,155.432704 C100.040852,155.434501 96.5855839,155.046386 93.2062893,154.275681 C81.2071279,151.988889 74.2779874,145.935849 70.8222222,141.826625 C68.8417191,139.471488 67.9995807,137.754717 67.9995807,137.754717 C78.7507338,141.60608 90.6381551,140.800419 97.867086,136.807547 C105.151992,132.768763 109.559748,129.774843 113.136897,130.955346 C116.663103,132.130608 119.47044,128.719078 116.952411,125.1826 C114.484696,121.651153 108.063522,116.593501 98.5293501,117.994759 C91.2360587,119.057023 84.5551363,124.233753 74.9989518,119.220126 C74.38351,118.900354 73.7849527,118.549085 73.2056604,118.167715 C72.5756813,117.796436 75.2534591,118.732704 74.6285115,118.310692 C72.7689727,117.405451 69.4769392,115.432704 68.6236897,114.731237 C68.4813417,114.614465 70.0666667,115.184277 69.9234801,115.066667 C60.98826,108.473585 62.1037736,104.019916 62.3849057,101.226415 C62.6098532,98.9916143 64.2327044,96.1278826 66.9675052,94.966457 C68.28826,95.612369 69.1113208,96.1054507 69.1113208,96.1054507 C69.1113208,96.1054507 68.5477987,95.0740042 68.2431866,94.5303983 C68.3498952,94.4897275 68.4515723,94.5 68.557652,94.4593291 C69.6398323,94.9272537 72.0327044,96.1425577 73.2926625,96.8849057 C74.933543,97.9220126 75.4566038,98.8467505 75.4566038,98.8467505 C75.4566038,98.8467505 75.8886792,98.6337526 75.5689727,97.7293501 C75.4522013,97.3584906 74.9549266,96.1798742 73.3295597,94.9903564 L73.4312369,95.0006289 C74.3961002,95.492448 75.3172582,96.0656644 76.184696,96.7140461 C76.6429769,95.221174 77.4672956,93.6622642 77.2859539,90.8735849 C77.1752621,88.9129979 77.2264151,88.4050314 76.8406709,87.6480084 C76.4953878,86.9981132 77.0343816,86.7440252 77.633543,87.4199161 C77.5298472,86.8868319 77.3576285,86.3694008 77.121174,85.8805031 L77.1264151,85.8297694 C77.8748428,83.4937107 92.9618449,77.4178197 94.0599581,76.7075472 C95.8294792,75.5967958 97.3426579,74.1225632 98.4991614,72.3825996 C99.3377358,71.1844864 99.9696017,69.5035639 100.12348,66.9538784 C100.175052,65.8050314 99.8213836,64.8958071 95.8257862,64.0262055 C93.427673,63.5041929 89.7176101,62.9962264 83.9949686,62.4593291 C79.8230608,62.091195 77.3750524,59.3825996 75.9840671,56.8828092 C75.7301887,56.3442348 75.4714885,55.8555556 75.2125786,55.3687631 C74.9664571,54.8020363 74.767938,54.2158054 74.6190776,53.6161426 C77.1155258,47.0807063 81.611409,41.500159 87.4658281,37.670021 C87.8012579,37.3958071 86.124109,37.7402516 86.4595388,37.4662474 C86.851153,37.1465409 89.4077568,36.2236897 89.8907757,36.0157233 C90.4805031,35.767086 87.3658281,34.581761 84.6163522,34.8698113 C81.8161426,35.1526205 81.2213836,35.451782 79.7268344,36.0199161 C80.3471698,35.4666667 82.3192872,34.7410901 81.8570231,34.7463312 C78.8381551,35.1610063 75.0855346,36.733543 71.8779874,38.5142558 C71.8721157,38.2020346 71.9384074,37.8926732 72.0716981,37.6102725 C70.5771488,38.1781971 66.9067086,40.4769392 65.8381551,42.4215933 C65.8841083,42.049278 65.9047008,41.6742697 65.8997904,41.2991614 C64.7743744,42.1379199 63.7475662,43.1014317 62.8389937,44.1712788 L62.7830189,44.2169811 C54.1148847,41.0880503 46.4870021,40.8855346 40.0320755,42.28826 C38.6199161,41.0176101 36.3494759,39.0962264 33.136478,32.7704403 C32.918239,32.3895178 32.8010482,33.557652 32.6333333,33.1815514 C31.3849057,30.2857442 30.630608,25.5412998 30.7545073,22.2704403 C30.7545073,22.2704403 28.1721174,23.4473795 26.0348008,28.3626834 C25.6379455,29.2463312 25.3834382,29.7337526 25.1291405,30.221174 C25.0121593,30.3633124 25.3943396,28.6069182 25.3333333,28.7025157 C24.9618449,29.3314465 24.0008386,30.2102725 23.5784067,31.3477987 C23.28826,32.1907757 22.8813417,32.6628931 22.6215933,33.7142558 L22.560587,33.8106918 C22.5396226,33.5008386 22.6375262,32.5358491 22.5662474,32.7337526 C21.564437,34.7577705 20.7023248,36.8479793 19.9859539,38.9897275 C18.8352201,42.772956 17.4955975,47.9226415 17.2832285,54.6218029 C17.2320755,55.1297694 17.2775681,55.6985325 17.2314465,56.1557652 C14.5060797,59.2677149 12.6490566,61.9027254 11.9469602,63.2685535 C8.42348008,68.7132075 4.5408805,77.1983229 0.777148847,90.6203354 C2.45167486,86.9539626 4.4540871,83.4464083 6.75995807,80.1404612 C3.63018868,87.2647799 0.604821803,98.4524109 0,115.681342 C0.759712482,112.115956 1.73081927,108.598915 2.9081761,105.148847 C2.36771488,116.637317 3.70587002,130.880503 10.9687631,146.950314 C15.2811321,156.402516 25.2079665,175.597904 49.463522,190.577149 L49.4614256,190.578616 C49.4614256,190.578616 57.7129979,196.721174 71.8968553,201.324738 C72.9450734,201.705031 74.0069182,202.079455 75.090566,202.442767 C74.7505241,202.305451 74.4215933,202.161006 74.1020964,202.012579 C83.5430001,204.841216 93.3450825,206.281868 103.200629,206.289308 C139.925996,206.320545 150.757442,191.572327 150.757442,191.572327 C150.757442,191.572327 150.719287,191.601048 150.649895,191.651363 C151.168134,191.163452 151.667296,190.656324 152.147379,190.129979 C146.35304,195.601677 133.12956,195.96478 128.185115,195.570021 C136.61761,193.093501 142.166457,190.998532 152.959748,186.865828 C154.222781,186.397624 155.514326,185.863732 156.834382,185.264151 C156.977149,185.201258 157.121174,185.133124 157.26457,185.067925 C157.526415,184.945912 157.785744,184.830608 158.050105,184.702306 C163.308817,182.224185 168.253641,179.128515 172.780084,175.480713 C183.618658,166.822432 185.976939,158.382809 187.209644,152.818239 C187.037736,153.351572 186.502096,154.594969 186.125786,155.40021 C183.334382,161.371279 177.144444,165.03522 170.421803,168.177568 C173.620814,163.98022 176.587387,159.610705 179.308176,155.088679 C181.502516,152.91195 182.187212,149.506918 183.825786,147.218868 Z" id="Path" fill="url(#radialGradient-7)"></path>
                <path d="M170.633333,167.920755 C175.052621,163.048428 179.021174,157.475472 182.027254,151.155975 C189.763103,134.891405 201.72369,107.847799 192.303564,79.6033543 C184.858491,57.2798742 174.636478,45.0733753 161.657652,33.1492662 C140.579245,13.7853249 134.692243,5.14067086 134.692243,0 C134.692243,0 110.354927,27.1297694 120.909853,55.4257862 C131.46478,83.7218029 153.081761,82.6844864 167.383438,112.212788 C184.212579,146.960168 153.767296,184.878197 128.590147,195.491195 C130.131656,195.148847 184.5587,182.832285 187.419078,151.700419 C187.354298,152.272956 186.127883,160.883438 170.633333,167.920755 Z" id="Path" fill="url(#radialGradient-8)"></path>
                <path d="M100.124109,66.9545073 C100.206499,65.1159329 99.2528302,63.8811321 84.048218,62.4549266 C77.7926625,61.8773585 75.3972746,56.0955975 74.667086,53.6622642 C72.4427673,59.4410901 71.5243187,65.5050314 72.0180294,72.8398323 C72.3555556,77.6448637 75.5838574,82.8023061 77.127044,85.8303983 C77.127044,85.8303983 77.470021,85.384696 77.6283019,85.2199161 C80.5341719,82.1945493 92.7092243,77.5849057 93.8530398,76.9303983 C95.1138365,76.1339623 99.912369,72.6278826 100.124109,66.9545073 Z" id="Path" fill="url(#linearGradient-9)"></path>
                <path d="M33.1895178,32.8031447 C32.9712788,32.4220126 32.8540881,33.5901468 32.6863732,33.2142558 C31.4379455,30.3184486 30.6784067,25.6251572 30.8582809,22.3081761 C30.8582809,22.3081761 28.275891,23.4851153 26.1385744,28.4004193 C25.7417191,29.2840671 25.4872117,29.7714885 25.232914,30.2589099 C25.1159329,30.4010482 25.4981132,28.6446541 25.4371069,28.7402516 C25.0658281,29.3691824 24.1048218,30.2480084 23.6874214,31.3345912 C23.3412998,32.2232704 22.9853249,32.7004193 22.7203354,33.8025157 C22.6387841,34.1020964 22.8025157,32.4769392 22.7312369,32.6748428 C17.7603774,42.281761 16.8115304,56.8077568 17.3354298,56.193501 C27.9178197,44.8937107 40.0450734,42.2138365 40.0450734,42.2138365 C38.754717,41.2633124 35.951153,38.5188679 33.1897275,32.8031447 L33.1895178,32.8031447 Z" id="Path" fill="url(#linearGradient-10)"></path>
                <path d="M73.3425577,150.964361 C58.7253669,144.72348 42.1073375,135.921384 42.7345912,115.924948 C43.5888889,89.5897275 67.2932914,94.7947589 67.2932914,94.7947589 C66.3987421,95.0125786 64.0071279,96.7155136 63.1595388,98.530608 C62.2637317,100.800419 60.6293501,105.925996 65.5811321,111.297904 C73.3566038,119.723899 49.6062893,131.288679 86.2651992,153.135849 C87.1897275,153.638994 77.6716981,152.836059 73.3429769,150.964361 L73.3425577,150.964361 Z" id="Path" fill="url(#linearGradient-11)"></path>
                <path d="M68.1496855,137.840671 C78.5148847,141.448008 90.5899371,140.815304 97.8190776,136.822222 C102.6587,134.128092 108.867296,129.812998 112.687421,130.878197 C109.379874,129.57086 106.874843,128.959958 103.861426,128.810692 C103.348218,128.810692 102.733124,128.79979 102.174214,128.743606 C101.070525,128.740032 99.9675567,128.800441 98.8708595,128.924528 C97.0050314,129.096017 94.9366876,130.273166 93.0563941,130.084277 C92.954717,130.074004 94.8802935,129.293082 94.7236897,129.328512 C93.7274633,129.536268 92.6450734,129.581132 91.5014675,129.722851 C90.7746331,129.803774 90.1494759,129.894759 89.4278826,129.924738 C67.8383648,131.755556 49.5920335,118.223899 49.5920335,118.223899 C48.0389937,123.454507 56.5450734,133.800419 68.1498952,137.840671 L68.1496855,137.840671 Z" id="Path" fill="url(#linearGradient-12)"></path>
                <path d="M170.594969,168.059958 C192.431866,146.619706 203.480084,120.557862 198.809434,91.3264151 C198.809434,91.3264151 200.675262,106.315933 193.60021,121.646751 C196.999161,106.679665 197.394759,88.0798742 188.364361,68.8190776 C176.311321,43.1102725 156.48847,29.5825996 148.920545,23.9389937 C137.454088,15.3878407 132.700839,6.68134172 132.615094,4.88469602 C129.189727,11.902935 118.827673,35.9538784 131.501887,56.6666667 C143.376101,76.0721174 162.081551,81.8320755 175.17652,99.6324948 C199.301258,132.424948 170.594969,168.059958 170.594969,168.059958 Z" id="Path" fill="url(#linearGradient-13)"></path>
                <path d="M167.466247,112.274843 C159.834801,96.509434 150.309853,89.6331237 141.29979,82.1802935 C142.348008,83.6477987 142.606289,84.1662474 143.186583,85.115304 C151.116771,93.5672956 162.810692,114.183648 154.320755,140.064361 C138.339832,188.780294 74.4165618,165.840042 67.7148847,159.396017 C70.4259958,187.590776 117.61761,201.0826 148.343816,182.798532 C165.828092,166.247379 179.972327,138.110692 167.466247,112.274843 Z" id="Path" fill="url(#linearGradient-14)"></path>
            </g>
        </g>
    </g>
</svg>