<?xml version="1.0" encoding="UTF-8"?>
<svg width="300px" height="300px" viewBox="0 0 300 300" version="1.1" xmlns="http://www.w3.org/2000/svg" xmlns:xlink="http://www.w3.org/1999/xlink">
    <!-- Generator: Sketch 52.6 (67491) - http://www.bohemiancoding.com/sketch -->
    <title>Slice</title>
    <desc>Created with Sketch.</desc>
    <g id="Page-1" stroke="none" stroke-width="1" fill="none" fill-rule="evenodd">
        <g id="app-logo" fill="#478AFF">
            <g id="Group" transform="translate(50.000000, 51.000000)">
                <path d="M100,55.033557 C75.1657193,55.033557 55.033557,75.1657193 55.033557,100 C55.033557,124.834281 75.1657193,144.966443 100,144.966443 C124.834281,144.966443 144.966443,124.834281 144.966443,100 C144.936858,75.1779843 124.822016,55.0631423 100,55.033557 Z" id="Path"></path>
                <circle id="Oval" cx="164.563758" cy="38.5369128" r="20.4832215"></circle>
                <path d="M189.785235,59.1275168 L188.926174,57.2483221 L187.583893,58.8053691 C184.225833,62.6157658 179.979558,65.5388259 175.221477,67.3154362 L173.879195,67.7986577 L174.416107,69.1409396 C189.341925,105.035654 176.540694,146.469988 143.969072,167.690261 C111.39745,188.910535 68.3236207,183.878566 41.5202979,155.721996 C14.7169751,127.565426 11.8109858,84.2961438 34.6085595,52.8083494 C57.4061333,21.3205549 99.4202705,10.5740305 134.536913,27.2483221 L135.798658,27.852349 L136.348993,26.5100671 C138.354891,21.8444509 141.480799,17.7457312 145.449664,14.5771812 L147.060403,13.2348993 L145.221477,12.2818792 C131.25118,5.02095339 115.731058,1.24914939 99.9865772,1.2885906 C56.2037197,1.29487773 17.6611056,30.1520211 5.32630822,72.1614418 C-7.00848914,114.170862 9.81482819,159.284539 46.6442048,182.960174 C83.4735814,206.635808 131.499985,203.210545 164.596563,174.547762 C197.693142,145.884979 207.943693,98.840383 189.771812,59.0067114 L189.785235,59.1275168 Z" id="Path"></path>
            </g>
        </g>
    </g>
</svg>