<?xml version="1.0" encoding="UTF-8"?>
<svg width="300px" height="300px" viewBox="0 0 300 300" version="1.1" xmlns="http://www.w3.org/2000/svg" xmlns:xlink="http://www.w3.org/1999/xlink">
    <!-- Generator: Sketch 52.6 (67491) - http://www.bohemiancoding.com/sketch -->
    <title>Slice</title>
    <desc>Created with Sketch.</desc>
    <g id="Page-1" stroke="none" stroke-width="1" fill="none" fill-rule="evenodd">
        <g id="app-logo">
            <g id="Group-16" transform="translate(80.000000, 68.000000)">
                <path d="M125.213261,41.9376087 C125.062609,42.91 124.887609,43.9036957 124.692826,44.9247826 C117.972826,79.4286957 94.9808696,91.3484783 65.6173913,91.3484783 L50.6663043,91.3484783 C47.075,91.3484783 44.0482609,93.9552174 43.4897826,97.4978261 L33.6669565,159.805435 C33.3032609,162.132174 35.0958696,164.227609 37.4423913,164.227609 L63.9602174,164.227609 C67.0995652,164.227609 69.7671739,161.946522 70.2617391,158.849783 L70.5219565,157.503043 L75.5147826,125.818913 L75.8358696,124.081087 C76.3243478,120.973696 78.9980435,118.691087 82.1373913,118.691087 L86.1030435,118.691087 C111.794565,118.691087 131.907391,108.261087 137.78587,78.0758696 C140.240435,65.4667391 138.969783,54.9378261 132.471957,47.5330435 C130.50587,45.3006522 128.066522,43.4471739 125.213261,41.9376087" id="Fill-8" fill="#298FC2"></path>
                <g id="Group-12">
                    <path d="M118.184348,39.1345652 C117.157174,38.8347826 116.098043,38.563913 115.011522,38.318913 C113.918913,38.08 112.800435,37.8684783 111.648478,37.6828261 C107.617391,37.0315217 103.199783,36.7226087 98.4686957,36.7226087 L58.5276087,36.7226087 C57.5430435,36.7226087 56.6086957,36.9447826 55.7732609,37.3465217 C53.9304348,38.2321739 52.5623913,39.976087 52.2306522,42.111087 L43.7332609,95.928913 L43.4897826,97.4978261 C44.0482609,93.9552174 47.075,91.3484783 50.6663043,91.3484783 L65.6173913,91.3484783 C94.9808696,91.3484783 117.972826,79.4226087 124.692826,44.9247826 C124.893696,43.9036957 125.062609,42.91 125.213261,41.9376087 C123.513478,41.0352174 121.672174,40.2636957 119.689348,39.6063043 C119.199348,39.4434783 118.69413,39.2867391 118.184348,39.1345652" id="Fill-9" fill="#22284F"></path>
                    <path d="M52.2306522,42.111087 C52.5623913,39.976087 53.9304348,38.2321739 55.7732609,37.3526087 C56.6147826,36.9493478 57.5430435,36.7271739 58.5276087,36.7271739 L98.4686957,36.7271739 C103.199783,36.7271739 107.617391,37.0376087 111.648478,37.688913 C112.800435,37.8730435 113.918913,38.086087 115.011522,38.325 C116.098043,38.5684783 117.157174,38.8408696 118.184348,39.1391304 C118.69413,39.2913043 119.199348,39.4495652 119.693913,39.6063043 C121.676739,40.2636957 123.519565,41.0413043 125.219348,41.9376087 C127.218913,29.1869565 125.202609,20.5054348 118.30913,12.6441304 C110.708043,3.98847826 96.991087,0.284565217 79.4378261,0.284565217 L28.4778261,0.284565217 C24.8926087,0.284565217 21.833913,2.89130435 21.28,6.44 L0.0547826087,140.981522 C-0.363695652,143.643043 1.68913043,146.044348 4.37347826,146.044348 L35.833913,146.044348 L52.2306522,42.111087" id="Fill-11" fill="#28356A"></path>
                </g>
            </g>
        </g>
    </g>
</svg>