<?xml version="1.0" encoding="UTF-8"?>
<svg width="300px" height="300px" viewBox="0 0 300 300" version="1.1" xmlns="http://www.w3.org/2000/svg" xmlns:xlink="http://www.w3.org/1999/xlink">
    <!-- Generator: Sketch 52.6 (67491) - http://www.bohemiancoding.com/sketch -->
    <title>Slice</title>
    <desc>Created with Sketch.</desc>
    <g id="Page-1" stroke="none" stroke-width="1" fill="none" fill-rule="evenodd">
        <g id="app-logo-copy">
            <g id="Group-18" transform="translate(50.000000, 37.000000)">
                <polygon id="Path" fill="#FFFFFF" points="100 0 200 56.5633075 200 169.715762 100 226.27907 0 169.715762 0 56.5633075"></polygon>
                <path d="M182.144703,165.813953 L103.307494,210.413437 L103.307494,175.684755 L152.428941,148.656331 L182.144703,165.813953 Z M187.54522,160.930233 L187.54522,67.6744186 L158.70801,84.3410853 L158.70801,144.289406 L187.54522,160.930233 Z M17.5452196,165.813953 L96.3824289,210.413437 L96.3824289,175.684755 L47.2351421,148.656331 L17.5452196,165.813953 Z M12.1447028,160.930233 L12.1447028,67.6744186 L40.9819121,84.3410853 L40.9819121,144.289406 L12.1447028,160.930233 Z M15.5297158,61.627907 L96.3824289,15.8914729 L96.3824289,49.4573643 L44.5736434,77.9586563 L44.1602067,78.1912145 L15.5297158,61.627907 Z M184.160207,61.627907 L103.307494,15.8914729 L103.307494,49.4573643 L155.116279,77.9328165 L155.529716,78.1653747 L184.160207,61.627907 Z" id="Shape" fill="#8ED6FB" fill-rule="nonzero"></path>
                <path d="M96.3824289,167.777778 L47.9069767,141.111111 L47.9069767,88.3204134 L96.3824289,116.30491 L96.3824289,167.777778 Z M103.307494,167.777778 L151.782946,141.136951 L151.782946,88.3204134 L103.307494,116.30491 L103.307494,167.777778 Z M51.1886305,82.2222222 L99.8449612,55.4780362 L148.501292,82.2222222 L99.8449612,110.310078 L51.1886305,82.2222222 Z" id="Shape" fill="#1C78C0" fill-rule="nonzero"></path>
            </g>
        </g>
    </g>
</svg>