<?xml version="1.0" standalone="no"?>
<!DOCTYPE svg PUBLIC "-//W3C//DTD SVG 20010904//EN"
 "http://www.w3.org/TR/2001/REC-SVG-20010904/DTD/svg10.dtd">
<svg version="1.0" xmlns="http://www.w3.org/2000/svg"
 width="40.000000pt" height="40.000000pt" viewBox="0 0 40 40"
 preserveAspectRatio="xMidYMid meet">
<metadata>
Created by potrace 1.16, written by Peter Selinger 2001-2019
</metadata>
<g transform="translate(0.000000,302.000000) scale(0.100000,-0.100000)"
fill="#000000" stroke="none">
<path d="M1120 2820 c-28 -28 -29 -168 -2 -194 18 -16 15 -20 -77 -114 -71
-71 -106 -115 -131 -166 l-35 -70 0 -935 c0 -774 2 -944 14 -984 19 -65 94
-147 163 -178 l53 -24 595 0 c594 0 595 0 643 22 78 36 127 81 156 143 l26 55
0 951 0 951 -38 75 c-30 59 -60 97 -131 167 -89 87 -92 91 -74 107 26 25 27
173 0 197 -17 15 -72 17 -580 17 -549 0 -562 0 -582 -20z m1040 -545 l0 -45
45 0 45 0 0 -45 0 -45 -45 0 -45 0 0 -45 0 -45 -45 0 -45 0 0 45 0 45 -40 0
-40 0 0 45 0 45 40 0 40 0 0 45 0 45 45 0 45 0 0 -45z m70 -487 c19 -21 20
-33 20 -452 0 -427 0 -430 -22 -453 l-21 -23 -507 0 c-503 0 -507 0 -526 21
-18 20 -19 42 -19 454 0 412 1 434 19 454 19 21 23 21 527 21 l508 0 21 -22z"/>
<path d="M1288 1638 c-30 -24 -31 -56 -4 -83 l26 -26 399 3 c250 2 404 7 410
13 22 23 23 63 2 84 -21 21 -29 21 -419 21 -303 0 -402 -3 -414 -12z"/>
<path d="M1284 1365 c-18 -19 -23 -31 -19 -48 14 -47 15 -47 441 -47 l403 0
15 22 c22 31 20 45 -9 73 l-24 25 -391 0 -391 0 -25 -25z"/>
<path d="M1590 1120 c-11 -11 -20 -29 -20 -40 0 -11 9 -29 20 -40 19 -19 33
-20 265 -20 232 0 246 1 265 20 11 11 20 29 20 40 0 11 -9 29 -20 40 -19 19
-33 20 -265 20 -232 0 -246 -1 -265 -20z"/>
</g>
</svg>
