<svg id="Layer_1" data-name="Layer 1" xmlns="http://www.w3.org/2000/svg" viewBox="0 0 100 100"><defs><style>.cls-1{fill:#f0f2ff;}.cls-2,.cls-9{fill:none;}.cls-2,.cls-4,.cls-5,.cls-7,.cls-8,.cls-9{stroke:#4550e5;stroke-linejoin:round;}.cls-2,.cls-4,.cls-5{stroke-linecap:round;}.cls-3,.cls-5,.cls-8{fill:#fff;}.cls-4,.cls-6,.cls-7{fill:#d6daff;}</style></defs><title>customer-service-man</title><path class="cls-1" d="M90,55.25A40,40,0,1,0,13.56,71.76H86.44A39.93,39.93,0,0,0,90,55.25Z"/><line class="cls-2" x1="11" y1="71.76" x2="89" y2="71.76"/><line class="cls-2" x1="6.5" y1="71.76" x2="9" y2="71.76"/><line class="cls-2" x1="91" y1="71.76" x2="93.5" y2="71.76"/><ellipse class="cls-1" cx="42.44" cy="83.25" rx="18" ry="1.5"/><path class="cls-3" d="M57.4,48.35A15.59,15.59,0,0,0,41.8,64v4.2c0,7.91-2.81,9-5.92,9H33.4v5.4h2.48c4.35,0,11.92-3.63,11.92-10.8H67c0,4.57-3.36,5.4-5.92,5.4H58.6v5.4h2.48C66,82.55,73,81.5,73,71.75V64A15.59,15.59,0,0,0,57.4,48.35Z"/><path class="cls-2" d="M57.4,48.35A15.59,15.59,0,0,0,41.8,64v4.2c0,7.91-2.81,9-5.92,9H33.4v5.4h2.48c4.35,0,11.92-3.63,11.92-10.8H67c0,4.57-3.36,5.4-5.92,5.4H58.6v5.4h2.48C66,82.55,73,81.5,73,71.75V64A15.59,15.59,0,0,0,57.4,48.35Z"/><polygon class="cls-3" points="61 48.95 57.4 51.35 53.8 48.95 53.8 45.95 61 45.95 61 48.95"/><polygon class="cls-2" points="61 48.95 57.4 51.35 53.8 48.95 53.8 45.95 61 45.95 61 48.95"/><path class="cls-4" d="M57.4,51.35,54.5,68.76a1.74,1.74,0,0,0,.17,1.12l.93,1.87h3.6l.93-1.87a1.74,1.74,0,0,0,.17-1.12Z"/><path class="cls-5" d="M62.19,54.12l2.72-3.84a15.45,15.45,0,0,0-3.73-1.45L57.4,51.35l3.43,2.94A.93.93,0,0,0,62.19,54.12Z"/><path class="cls-5" d="M52.61,54.12l-2.72-3.84a15.45,15.45,0,0,1,3.73-1.45l3.78,2.52L54,54.29A.93.93,0,0,1,52.61,54.12Z"/><line class="cls-2" x1="47.8" y1="64.55" x2="47.8" y2="71.75"/><line class="cls-2" x1="67" y1="64.55" x2="67" y2="71.75"/><path class="cls-5" d="M58.6,82H56.8a2.4,2.4,0,1,1,0-4.8h1.8Z"/><path class="cls-5" d="M33.4,82H31.6a2.4,2.4,0,1,1,0-4.8h1.8Z"/><path class="cls-5" d="M67.6,35.15v-2.4a10.2,10.2,0,0,0-20.4,0v2.4A1.81,1.81,0,0,0,45.4,37v.6a1.81,1.81,0,0,0,1.8,1.8l.17,0a10.19,10.19,0,0,0,20.07,0l.16,0a1.8,1.8,0,0,0,1.8-1.8V37A1.8,1.8,0,0,0,67.6,35.15Z"/><circle class="cls-6" cx="51.4" cy="39.35" r="1.2"/><circle class="cls-6" cx="63.4" cy="39.35" r="1.2"/><path class="cls-2" d="M54.4,41.75a4.35,4.35,0,0,0,6,0"/><path class="cls-2" d="M62.8,36.35a1.63,1.63,0,0,0-3,0"/><path class="cls-2" d="M55,36.15a1.63,1.63,0,0,0-3,0"/><path class="cls-3" d="M49,37a10.14,10.14,0,0,0,.21-4.25c1.06.35,2.79-1.15,2.79-1.15v-2.4a24,24,0,0,0,5.4,1.2,23.83,23.83,0,0,0,5.4-1.2v2.4s1.74,1.5,2.79,1.15A10.14,10.14,0,0,0,65.8,37a1.78,1.78,0,0,1,2.34-1.66l0,0a1.74,1.74,0,0,0-.56-.1v-2.4a10.2,10.2,0,0,0-20.4,0v2.4a1.74,1.74,0,0,0-.56.1l0,0A1.77,1.77,0,0,1,49,37Z"/><path class="cls-2" d="M49,37a10.14,10.14,0,0,0,.21-4.25c1.06.35,2.79-1.15,2.79-1.15v-2.4a24,24,0,0,0,5.4,1.2,23.83,23.83,0,0,0,5.4-1.2v2.4s1.74,1.5,2.79,1.15A10.14,10.14,0,0,0,65.8,37a1.78,1.78,0,0,1,2.34-1.66l0,0a1.74,1.74,0,0,0-.56-.1v-2.4a10.2,10.2,0,0,0-20.4,0v2.4a1.74,1.74,0,0,0-.56.1l0,0A1.77,1.77,0,0,1,49,37Z"/><path class="cls-2" d="M45.4,39.35v1.8a5.4,5.4,0,0,0,5.4,5.4h.6"/><path class="cls-2" d="M44.2,36.35v-3a13.2,13.2,0,0,1,26.4,0v2.4"/><path class="cls-5" d="M44.2,34.55h2.4a0,0,0,0,1,0,0v6a0,0,0,0,1,0,0H44.2a1.2,1.2,0,0,1-1.2-1.2v-3.6A1.2,1.2,0,0,1,44.2,34.55Z"/><path class="cls-4" d="M45.4,39.35a1.2,1.2,0,1,0,2.4,0v-3.6a1.2,1.2,0,1,0-2.4,0Z"/><path class="cls-5" d="M69.4,34.55h2.4a0,0,0,0,1,0,0v6a0,0,0,0,1,0,0H69.4a1.2,1.2,0,0,1-1.2-1.2v-3.6A1.2,1.2,0,0,1,69.4,34.55Z" transform="translate(140 75.1) rotate(180)"/><path class="cls-4" d="M69.4,39.35a1.2,1.2,0,1,1-2.4,0v-3.6a1.2,1.2,0,0,1,2.4,0Z"/><path class="cls-4" d="M55,46.55a1.8,1.8,0,1,1-1.8-1.8A1.81,1.81,0,0,1,55,46.55Z"/><path class="cls-7" d="M46.13,80.25h2.23L43.59,65.44a1,1,0,0,0-1-.69h-1.5Z"/><path class="cls-6" d="M26.63,80.25h19.5l-5-15.5H23a1,1,0,0,0-.95,1.31Z"/><path class="cls-7" d="M26.63,80.25h20.5v2.5H28.63a2,2,0,0,1-2-2Z"/><path class="cls-7" d="M47.13,80.25h9a.5.5,0,0,1,.5.5,2,2,0,0,1-2,2H47.13Z"/><path class="cls-8" d="M35,72A1.11,1.11,0,0,1,35.5,71a1.13,1.13,0,0,0-.9-.48c-.38,0-.75.22-.94.22s-.49-.22-.81-.21a1.2,1.2,0,0,0-1,.61,2.58,2.58,0,0,0,.31,2.48c.21.3.46.63.78.62s.43-.2.8-.2.49.2.81.19.55-.3.76-.6a3.23,3.23,0,0,0,.34-.7A1.06,1.06,0,0,1,35,72Z"/><line class="cls-2" x1="34.13" y1="69.25" x2="34.58" y2="68.8"/><path class="cls-9" d="M26.63,80.25h19.5l-5-15.5H23a1,1,0,0,0-.95,1.31Z"/></svg>