<svg id="Layer_1" data-name="Layer 1" xmlns="http://www.w3.org/2000/svg" viewBox="0 0 100 100"><defs><style>.cls-1,.cls-5{fill:#f0f2ff;}.cls-2{fill:none;}.cls-2,.cls-3,.cls-4,.cls-5{stroke:#4550e5;stroke-linecap:round;stroke-linejoin:round;}.cls-3,.cls-8{fill:#fff;}.cls-4,.cls-7{fill:#d6daff;}.cls-6{fill:#4550e5;}</style></defs><title>programmer-male</title><path class="cls-1" d="M90.5,52A40,40,0,1,0,14.06,68.5H86.94A39.85,39.85,0,0,0,90.5,52Z"/><line class="cls-2" x1="11" y1="68.5" x2="89" y2="68.5"/><line class="cls-2" x1="6.5" y1="68.5" x2="9" y2="68.5"/><line class="cls-2" x1="91" y1="68.5" x2="93.5" y2="68.5"/><rect class="cls-3" x="65.17" y="31.5" width="17.5" height="34"/><rect class="cls-3" x="65.17" y="29.5" width="17.5" height="2"/><path class="cls-3" d="M63.17,68.5h2v-39a1,1,0,0,0-1-1h0a1,1,0,0,0-1,1Z"/><path class="cls-3" d="M82.67,68.5h2v-39a1,1,0,0,0-1-1h0a1,1,0,0,0-1,1Z"/><rect class="cls-3" x="43.67" y="31.5" width="17.5" height="34"/><path class="cls-3" d="M46.67,33.5h11.5a1,1,0,0,1,1,1v2a0,0,0,0,1,0,0H45.67a0,0,0,0,1,0,0v-2A1,1,0,0,1,46.67,33.5Z"/><path class="cls-4" d="M53.17,33.5l-3,3h9v-2a1,1,0,0,0-1-1Z"/><path class="cls-3" d="M46.67,49.5h11.5a1,1,0,0,1,1,1v2a0,0,0,0,1,0,0H45.67a0,0,0,0,1,0,0v-2A1,1,0,0,1,46.67,49.5Z"/><path class="cls-4" d="M53.17,49.5l-3,3h9v-2a1,1,0,0,0-1-1Z"/><path class="cls-3" d="M45.67,36.5h13.5a0,0,0,0,1,0,0v2a1,1,0,0,1-1,1H46.67a1,1,0,0,1-1-1v-2A0,0,0,0,1,45.67,36.5Z"/><path class="cls-4" d="M53.17,36.5l-3,3h8a1,1,0,0,0,1-1v-2Z"/><path class="cls-3" d="M68.17,33.5h11.5a1,1,0,0,1,1,1v2a0,0,0,0,1,0,0H67.17a0,0,0,0,1,0,0v-2A1,1,0,0,1,68.17,33.5Z"/><path class="cls-4" d="M74.67,33.5l-3,3h9v-2a1,1,0,0,0-1-1Z"/><path class="cls-3" d="M67.17,36.5h13.5a0,0,0,0,1,0,0v2a1,1,0,0,1-1,1H68.17a1,1,0,0,1-1-1v-2A0,0,0,0,1,67.17,36.5Z"/><path class="cls-4" d="M74.67,36.5l-3,3h8a1,1,0,0,0,1-1v-2Z"/><path class="cls-3" d="M68.17,41.5h11.5a1,1,0,0,1,1,1v2a0,0,0,0,1,0,0H67.17a0,0,0,0,1,0,0v-2A1,1,0,0,1,68.17,41.5Z"/><path class="cls-4" d="M74.67,41.5l-3,3h9v-2a1,1,0,0,0-1-1Z"/><path class="cls-3" d="M67.17,44.5h13.5a0,0,0,0,1,0,0v2a1,1,0,0,1-1,1H68.17a1,1,0,0,1-1-1v-2A0,0,0,0,1,67.17,44.5Z"/><path class="cls-4" d="M74.67,44.5l-3,3h8a1,1,0,0,0,1-1v-2Z"/><path class="cls-3" d="M46.67,57.5h11.5a1,1,0,0,1,1,1v2a0,0,0,0,1,0,0H45.67a0,0,0,0,1,0,0v-2A1,1,0,0,1,46.67,57.5Z"/><path class="cls-4" d="M53.17,57.5l-3,3h9v-2a1,1,0,0,0-1-1Z"/><path class="cls-3" d="M45.67,60.5h13.5a0,0,0,0,1,0,0v2a1,1,0,0,1-1,1H46.67a1,1,0,0,1-1-1v-2A0,0,0,0,1,45.67,60.5Z"/><path class="cls-4" d="M53.17,60.5l-3,3h8a1,1,0,0,0,1-1v-2Z"/><path class="cls-3" d="M46.67,41.5h11.5a1,1,0,0,1,1,1v2a0,0,0,0,1,0,0H45.67a0,0,0,0,1,0,0v-2A1,1,0,0,1,46.67,41.5Z"/><path class="cls-4" d="M53.17,41.5l-3,3h9v-2a1,1,0,0,0-1-1Z"/><path class="cls-3" d="M45.67,44.5h13.5a0,0,0,0,1,0,0v2a1,1,0,0,1-1,1H46.67a1,1,0,0,1-1-1v-2A0,0,0,0,1,45.67,44.5Z"/><path class="cls-4" d="M53.17,44.5l-3,3h8a1,1,0,0,0,1-1v-2Z"/><path class="cls-3" d="M68.17,49.5h11.5a1,1,0,0,1,1,1v2a0,0,0,0,1,0,0H67.17a0,0,0,0,1,0,0v-2A1,1,0,0,1,68.17,49.5Z"/><path class="cls-4" d="M74.67,49.5l-3,3h9v-2a1,1,0,0,0-1-1Z"/><path class="cls-3" d="M67.17,52.5h13.5a0,0,0,0,1,0,0v2a1,1,0,0,1-1,1H68.17a1,1,0,0,1-1-1v-2A0,0,0,0,1,67.17,52.5Z"/><path class="cls-4" d="M74.67,52.5l-3,3h8a1,1,0,0,0,1-1v-2Z"/><path class="cls-3" d="M68.17,57.5h11.5a1,1,0,0,1,1,1v2a0,0,0,0,1,0,0H67.17a0,0,0,0,1,0,0v-2A1,1,0,0,1,68.17,57.5Z"/><path class="cls-4" d="M74.67,57.5l-3,3h9v-2a1,1,0,0,0-1-1Z"/><path class="cls-3" d="M67.17,60.5h13.5a0,0,0,0,1,0,0v2a1,1,0,0,1-1,1H68.17a1,1,0,0,1-1-1v-2A0,0,0,0,1,67.17,60.5Z"/><path class="cls-4" d="M74.67,60.5l-3,3h8a1,1,0,0,0,1-1v-2Z"/><path class="cls-3" d="M45.67,52.5h13.5a0,0,0,0,1,0,0v2a1,1,0,0,1-1,1H46.67a1,1,0,0,1-1-1v-2A0,0,0,0,1,45.67,52.5Z"/><path class="cls-4" d="M53.17,52.5l-3,3h8a1,1,0,0,0,1-1v-2Z"/><rect class="cls-3" x="43.67" y="29.5" width="17.5" height="2"/><path class="cls-3" d="M41.67,68.5h2v-39a1,1,0,0,0-1-1h0a1,1,0,0,0-1,1Z"/><path class="cls-3" d="M61.17,68.5h2v-39a1,1,0,0,0-1-1h0a1,1,0,0,0-1,1Z"/><path class="cls-2" d="M46.08,56.38h0A2.86,2.86,0,0,1,49,59.25V80a4.22,4.22,0,0,0,4.22,4.22H57"/><path class="cls-5" d="M58.15,85.12H61v-2.3H58.15A1.16,1.16,0,0,0,57,84h0A1.15,1.15,0,0,0,58.15,85.12Z"/><path class="cls-2" d="M58.15,65.57V72.1a2.67,2.67,0,0,0,2.68,2.67h2.5a4.6,4.6,0,0,1,4.6,4.61h0a4.6,4.6,0,0,1-4.6,4.6H61"/><path class="cls-2" d="M54.7,65.57V72a2.76,2.76,0,0,0,2.76,2.75h5.87"/><ellipse class="cls-1" cx="31.13" cy="86.27" rx="11.5" ry="1.73"/><path class="cls-3" d="M29.4,24.18a6.89,6.89,0,0,0-6.9,6.89V32a1.41,1.41,0,0,0-1.15,1.38,1.42,1.42,0,0,0,1.3,1.4,6.9,6.9,0,0,0,13.65-1.4V31.07A6.89,6.89,0,0,0,29.4,24.18Z"/><path class="cls-3" d="M17.9,53.5a10.93,10.93,0,1,1,21.85,0v1.73H36.88v8.62h-15V55.23h-4Z"/><circle class="cls-6" cx="28.54" cy="31.94" r="0.86"/><circle class="cls-6" cx="33.14" cy="31.94" r="0.86"/><circle class="cls-7" cx="26.24" cy="34.24" r="0.86"/><path class="cls-2" d="M28.83,36.3a3.1,3.1,0,0,0,3.45,0"/><path class="cls-8" d="M36.88,29.35a7.48,7.48,0,0,0-15,0v2.3a5.94,5.94,0,0,0,4-3.45C29.18,30.37,33.43,29.93,36.88,29.35Z"/><path class="cls-2" d="M36.88,29.35a7.48,7.48,0,0,0-15,0v2.3a5.94,5.94,0,0,0,4-3.45C29.18,30.37,33.43,29.93,36.88,29.35Z"/><path class="cls-2" d="M24.8,27.05A3.79,3.79,0,0,0,26,28.2"/><path class="cls-3" d="M17.9,67a2,2,0,0,0,4,0V55.23h-4Z"/><line class="cls-2" x1="21.93" y1="55.23" x2="21.93" y2="51.77"/><line class="cls-2" x1="36.88" y1="55.23" x2="36.88" y2="51.77"/><path class="cls-3" d="M26.56,42.81,29.4,46.6l2.74-3.51a11,11,0,0,0-3.31-.52A11.35,11.35,0,0,0,26.56,42.81Z"/><path class="cls-4" d="M29.4,46.6l2.12.35a1,1,0,0,0,1.1-1.11l-.48-2.75Z"/><path class="cls-4" d="M26.56,42.81l-.43,3.07A1,1,0,0,0,27.24,47l2.16-.36Z"/><line class="cls-2" x1="29.4" y1="46.6" x2="29.4" y2="63.85"/><rect class="cls-8" x="32.85" y="50.63" width="13.23" height="8.63" rx="1" ry="1"/><rect class="cls-2" x="32.85" y="50.63" width="13.23" height="8.63" rx="1" ry="1"/><circle class="cls-4" cx="39.47" cy="55.8" r="1.15"/><line class="cls-2" x1="39.47" y1="53.5" x2="40.04" y2="52.93"/><path class="cls-3" d="M37.69,58.68h3a.81.81,0,0,1,.81.81v.86a1.2,1.2,0,0,1-1.2,1.2h-2.2a1.2,1.2,0,0,1-1.2-1.2v-.86A.81.81,0,0,1,37.69,58.68Z"/><path class="cls-7" d="M36.3,81.68a3.69,3.69,0,0,1,.58,0V63.85h-15V81.68h4.6a3.11,3.11,0,0,1,.69.07l.4-11a1.79,1.79,0,0,1,3.57,0l.51,10.93Z"/><path class="cls-2" d="M36.3,81.68a3.69,3.69,0,0,1,.58,0V63.85h-15V81.68h4.6a3.11,3.11,0,0,1,.69.07l.4-11a1.79,1.79,0,0,1,3.57,0l.51,10.93Z"/><path class="cls-3" d="M39.75,85.12a3.44,3.44,0,0,0-3.45-3.44H31.7V84a1.15,1.15,0,0,0,1.15,1.14Z"/><path class="cls-3" d="M30,85.12a3.45,3.45,0,0,0-3.45-3.44h-4.6V84a1.14,1.14,0,0,0,1.15,1.14Z"/></svg>